<svg width="108" height="108" fill="none" xmlns="http://www.w3.org/2000/svg"><g clip-path="url(#a)"><path d="M54 0c29.824 0 54 24.176 54 54s-24.176 54-54 54S0 83.824 0 54 24.176 0 54 0z" fill="#fff"/><path d="M75.25 33.305C75.25 22.205 65.662 13 54 13c-11.672 0-21.258 9.212-21.258 20.305v6.49H24v46.683L53.99 100.5 84 86.475v-46.47h-8.745l-.007-6.698.002-.002zm-31.67 0c0-5.232 4.585-9.42 10.418-9.42 5.835 0 10.417 4.188 10.417 9.42v6.49H43.58v-6.49zm28.335 45.637L53.99 87.32l-17.92-8.372V50.89h35.845v28.052z" fill="#171717"/></g><defs><clipPath id="a"><path fill="#fff" d="M0 0h108v108H0z"/></clipPath></defs></svg>