<svg width="120" height="120" viewBox="0 0 120 120" fill="none" xmlns="http://www.w3.org/2000/svg">
<path d="M60 80C60 68.9543 68.9543 60 80 60H100C111.046 60 120 68.9543 120 80V100C120 111.046 111.046 120 100 120H80C68.9543 120 60 111.046 60 100V80Z" fill="#F5F7F8"/>
<path d="M20 0C8.95431 0 0 8.9543 0 20V80C0 91.0457 8.9543 100 20 100H50V80C50 63.4315 63.4315 50 80 50H100V20C100 8.95431 91.0457 0 80 0H20Z" fill="#007CBF"/>
<path d="M35.258 38.9886C30.9142 34.6447 30.9142 27.6018 35.258 23.2579C39.6019 18.914 46.6448 18.914 50.9887 23.2579L69.8655 42.1347C72.2406 44.5099 73.3171 47.692 73.0949 50.7985C71.4145 51.1944 69.7887 51.7315 68.2307 52.3966C69.1469 50.0107 68.6431 47.2046 66.7193 45.2808L47.8426 26.404C45.2362 23.7977 41.0105 23.7977 38.4042 26.404C35.7978 29.0104 35.7978 33.2361 38.4042 35.8424L47.5204 44.9587L44.3743 48.1048L35.258 38.9886Z" fill="white"/>
<path d="M61.1934 56.6253C59.7633 56.4522 58.3785 55.8168 57.2809 54.7192L54.4136 51.8518L51.2674 54.9979L54.1348 57.8653C55.132 58.8625 56.2714 59.6308 57.4878 60.1702C58.6196 58.8862 59.8596 57.6998 61.1934 56.6253Z" fill="white"/>
<path d="M51.8594 69.5792L47.8426 73.596C45.2362 76.2023 41.0105 76.2023 38.4042 73.596C35.7978 70.9896 35.7978 66.7639 38.4042 64.1576L57.2809 45.2808C58.2063 44.3555 59.3357 43.7587 60.5243 43.4904L57.0631 40.0291C56.0061 40.5526 55.015 41.2545 54.1348 42.1347L49.4156 46.8539L49.4081 46.8464L46.262 49.9925L46.2695 50L35.258 61.0115C30.9141 65.3554 30.9141 72.3982 35.258 76.7421C39.3166 80.8007 45.7312 81.0673 50.0993 77.5419C50.3246 74.7634 50.9285 72.0919 51.8594 69.5792Z" fill="white"/>
<path d="M109.15 90.45C109.15 89.1333 109.033 87.8833 108.833 86.6667H90V94.1833H100.783C100.3 96.65 98.8833 98.7333 96.7833 100.15V105.15H103.217C106.983 101.667 109.15 96.5333 109.15 90.45Z" fill="#4285F4"/>
<path d="M90.0001 110C95.4001 110 99.9167 108.2 103.217 105.15L96.7833 100.15C94.9833 101.35 92.7001 102.083 90.0001 102.083C84.7834 102.083 80.3667 98.5667 78.7834 93.8167H72.1501V98.9667C75.4334 105.5 82.1834 110 90.0001 110Z" fill="#34A853"/>
<path d="M78.7834 93.8167C78.3667 92.6167 78.15 91.3333 78.15 90C78.15 88.6667 78.3833 87.3833 78.7833 86.1833V81.0333H72.15C70.7833 83.7333 70 86.7667 70 90C70 93.2333 70.7834 96.2667 72.1501 98.9667L78.7834 93.8167Z" fill="#FBBC05"/>
<path d="M90.0001 77.9167C92.9501 77.9167 95.5834 78.9333 97.6667 80.9167L103.367 75.2167C99.9167 71.9833 95.4001 70 90.0001 70C82.1834 70 75.4333 74.5 72.15 81.0333L78.7833 86.1833C80.3667 81.4333 84.7834 77.9167 90.0001 77.9167Z" fill="#EA4335"/>
</svg>
